<?xml version="1.0" encoding="utf-8"?>
<!-- Generator: Adobe Illustrator 16.0.0, SVG Export Plug-In . SVG Version: 6.00 Build 0)  -->
<!DOCTYPE svg PUBLIC "-//W3C//DTD SVG 1.1//EN" "http://www.w3.org/Graphics/SVG/1.1/DTD/svg11.dtd">
<svg version="1.1" id="Calque_1" xmlns="http://www.w3.org/2000/svg" xmlns:xlink="http://www.w3.org/1999/xlink" x="0px" y="0px"
	 width="178.623px" height="178.623px" viewBox="0 0 178.623 178.623" enable-background="new 0 0 178.623 178.623"
	 xml:space="preserve">
<path fill="#7B8790" d="M89.313,0C40.016,0,0,40.007,0,89.312c0,49.296,40.016,89.312,89.313,89.312
	c49.295,0,89.311-40.016,89.311-89.312C178.623,40.007,138.607,0,89.313,0z M89.313,26.794c14.826,0,26.793,11.966,26.793,26.793
	s-11.967,26.794-26.793,26.794c-14.828,0-26.793-11.967-26.793-26.794S74.484,26.794,89.313,26.794z M89.313,153.618
	c-22.328,0-42.066-11.435-53.588-28.756c0.262-17.775,35.725-27.509,53.588-27.509c17.775,0,53.324,9.733,53.586,27.509
	C131.377,142.184,111.641,153.618,89.313,153.618z"/>
</svg>
